<?xml version="1.0" encoding="UTF-8"?>
<!-- Generator: Adobe Illustrator 16.0.0, SVG Export Plug-In . SVG Version: 6.00 Build 0)  -->
<!DOCTYPE svg  PUBLIC '-//W3C//DTD SVG 1.1//EN'  'http://www.w3.org/Graphics/SVG/1.1/DTD/svg11.dtd'>
<svg id="Layer_1" width="266px" height="212px" enable-background="new 0 0 266 212" version="1.1" viewBox="0 0 266 212" xml:space="preserve" xmlns="http://www.w3.org/2000/svg">

	
		<line x1="27.23" x2="29.23" y1="23.192" y2="23.192" fill="none" stroke="#000" stroke-miterlimit="10" stroke-width="2"/>
		
			<line x1="33.187" x2="236.93" y1="23.192" y2="23.192" fill="none" stroke="#000" stroke-dasharray="3.9562,3.9562" stroke-miterlimit="10" stroke-width="2"/>
		<polyline points="238.91 23.192 240.91 23.192 238.97 23.677" fill="none" stroke="#000" stroke-miterlimit="10" stroke-width="2"/>
		
			<line x1="235.1" x2="27.971" y1="24.646" y2="76.427" fill="none" stroke="#000" stroke-dasharray="3.9907,3.9907" stroke-miterlimit="10" stroke-width="2"/>
		<polyline points="26.035 76.912 24.095 77.396 26.095 77.396" fill="none" stroke="#000" stroke-miterlimit="10" stroke-width="2"/>
		
			<line x1="30.11" x2="236.9" y1="77.396" y2="77.396" fill="none" stroke="#000" stroke-dasharray="4.0154,4.0154" stroke-miterlimit="10" stroke-width="2"/>
		<polyline points="238.91 77.396 240.91 77.396 238.97 77.881" fill="none" stroke="#000" stroke-miterlimit="10" stroke-width="2"/>
		
			<line x1="235.1" x2="27.971" y1="78.85" y2="130.63" fill="none" stroke="#000" stroke-dasharray="3.9907,3.9907" stroke-miterlimit="10" stroke-width="2"/>
		<polyline points="26.035 131.11 24.095 131.6 26.095 131.6" fill="none" stroke="#000" stroke-miterlimit="10" stroke-width="2"/>
		
			<line x1="30.11" x2="236.9" y1="131.6" y2="131.6" fill="none" stroke="#000" stroke-dasharray="4.0154,4.0154" stroke-miterlimit="10" stroke-width="2"/>
		<polyline points="238.91 131.6 240.91 131.6 238.97 132.08" fill="none" stroke="#000" stroke-miterlimit="10" stroke-width="2"/>
		
			<line x1="235.1" x2="27.971" y1="133.05" y2="184.84" fill="none" stroke="#000" stroke-dasharray="3.9907,3.9907" stroke-miterlimit="10" stroke-width="2"/>
		<polyline points="26.035 185.32 24.095 185.8 26.095 185.8" fill="none" stroke="#000" stroke-miterlimit="10" stroke-width="2"/>
		
			<line x1="30.104" x2="228.53" y1="185.8" y2="185.8" fill="none" stroke="#000" stroke-dasharray="4.0086,4.0086" stroke-miterlimit="10" stroke-width="2"/>
		
			<line x1="230.53" x2="232.53" y1="185.8" y2="185.8" fill="none" stroke="#000" stroke-miterlimit="10" stroke-width="2"/>
		
			<rect x="24.095" y="19.892" width="6.602" height="6.602"/>
		
		
			<path d="m238.57 185.8c-2.84 1.054-6.363 2.852-8.548 4.756l1.721-4.756-1.721-4.755c2.185 1.904 5.708 3.702 8.548 4.755z"/>
		
	

<g id="graph0">
	<title>sorted_binary_tree</title>
	<g id="node1">
		<title>C</title>
		<ellipse cx="60.23" cy="185.8" rx="18.067" ry="18.067" fill="#fff" stroke="#000"/>
		<text transform="translate(55.544 190.82)" font-family="'Times-Roman'" font-size="14.053">C</text>
	</g>
	<g id="node2">
		<title>E</title>
		<ellipse cx="132.5" cy="185.8" rx="18.067" ry="18.067" fill="#fff" stroke="#000"/>
		<text transform="translate(128.21 190.82)" font-family="'Times-Roman'" font-size="14.053">E</text>
	</g>
	<g id="node3">
		<title>H</title>
		<ellipse cx="204.77" cy="185.8" rx="17.064" ry="18.067" fill="#fff" stroke="#000"/>
		<text transform="translate(199.7 190.82)" font-family="'Times-Roman'" font-size="14.053">H</text>
	</g>
	<g id="node4">
		<title>A</title>
		<ellipse cx="24.094" cy="131.6" rx="17.064" ry="18.068" fill="#fff" stroke="#000"/>
		<text transform="translate(19.02 136.62)" font-family="'Times-Roman'" font-size="14.053">A</text>
	</g>
	<g id="node5">
		<title>D</title>
		<ellipse cx="96.366" cy="131.6" rx="17.064" ry="18.068" fill="#fff" stroke="#000"/>
		<text transform="translate(91.292 136.62)" font-family="'Times-Roman'" font-size="14.053">D</text>
	</g>
	<g id="edge6">
		<title>D-&gt;C</title>
		<path d="m86.328 147.66c-3.011 4.016-7.026 9.034-10.038 14.053" fill="none" stroke="#000"/>
		<polygon points="78.298 164.72 70.268 170.75 73.279 160.71" stroke="#000"/>
	</g>
	<g id="edge8">
		<title>D-&gt;E</title>
		<path d="m106.4 147.66c3.011 4.016 7.026 9.034 10.038 14.053" fill="none" stroke="#000"/>
		<polygon points="119.45 160.71 122.46 170.75 114.43 164.72" stroke="#000"/>
	</g>
	<g id="node6">
		<title>I</title>
		<ellipse cx="240.91" cy="131.6" rx="18.068" ry="18.068" fill="#fff" stroke="#000"/>
		<text transform="translate(238.57 136.62)" font-family="'Times-Roman'" font-size="14.053">I</text>
	</g>
	<g id="edge12">
		<title>I-&gt;H</title>
		<path d="m230.87 146.66c-3.011 5.02-6.021 10.038-10.037 15.057" fill="none" stroke="#000"/>
		<polygon points="223.85 163.72 214.81 169.74 217.82 159.7" stroke="#000"/>
	</g>
	<g id="node7">
		<title>B</title>
		<ellipse cx="60.23" cy="77.396" rx="18.068" ry="18.068" fill="#fff" stroke="#000"/>
		<text transform="translate(55.544 82.415)" font-family="'Times-Roman'" font-size="14.053">B</text>
	</g>
	<g id="edge3">
		<title>B-&gt;A</title>
		<path d="m50.192 92.453c-3.011 5.019-6.022 10.038-10.038 15.057" fill="none" stroke="#000"/>
		<polygon points="43.166 109.52 34.132 115.54 37.144 105.5" stroke="#000"/>
	</g>
	<g id="edge5">
		<title>B-&gt;D</title>
		<path d="m70.268 92.453c3.011 5.019 6.022 10.038 10.038 15.057" fill="none" stroke="#000"/>
		<polygon points="83.317 105.5 86.328 115.54 77.294 109.52" stroke="#000"/>
	</g>
	<g id="node8">
		<title>G</title>
		<ellipse cx="204.77" cy="77.396" rx="17.064" ry="18.068" fill="#fff" stroke="#000"/>
		<text transform="translate(199.7 82.415)" font-family="'Times-Roman'" font-size="14.053">G</text>
	</g>
	<g id="edge11">
		<title>G-&gt;I</title>
		<path d="m214.81 93.457c3.011 4.015 7.026 9.034 10.038 14.053" fill="none" stroke="#000"/>
		<polygon points="227.86 106.51 230.87 116.54 222.84 110.52" stroke="#000"/>
	</g>
	<g id="node9">
		<title>F</title>
		<ellipse cx="132.5" cy="23.192" rx="18.068" ry="18.068" fill="#fff" stroke="#000"/>
		<text transform="translate(128.59 28.211)" font-family="'Times-Roman'" font-size="14.053">F</text>
	</g>
	<g id="edge2">
		<title>F-&gt;B</title>
		<path d="m117.44 34.234c-11.042 8.03-23.087 17.064-34.128 26.098" fill="none" stroke="#000"/>
		<polygon points="85.325 63.343 75.287 66.354 81.31 57.321" stroke="#000"/>
	</g>
	<g id="edge10">
		<title>F-&gt;G</title>
		<path d="m147.56 34.234c11.041 8.03 23.087 17.064 34.129 26.098" fill="none" stroke="#000"/>
		<polygon points="183.69 57.321 189.72 66.354 179.68 63.343" stroke="#000"/>
	</g>
</g>
</svg>
